<svg width="38" height="38" viewBox="0 0 38 38" fill="none" xmlns="http://www.w3.org/2000/svg">
<path d="M37.1644 0.25H35.4063V0.81C32.9588 1.3575 32.6069 3.62937 32.4688 4.4975C32.4031 4.90812 32.27 5.71125 32.105 6.695H1.49251C0.281259 6.695 0.145634 7.82688 0.303759 8.45312L3.89501 24.3075C4.05251 24.9338 4.71563 25.445 5.36563 25.445H32.2056C32.8519 25.445 33.3788 25.9706 33.3788 26.6169C33.3788 27.2631 32.8519 27.7888 32.2056 27.7888H2.90938C2.59858 27.7888 2.30051 27.9122 2.08074 28.132C1.86097 28.3518 1.73751 28.6498 1.73751 28.9606C1.73751 29.2714 1.86097 29.5695 2.08074 29.7893C2.30051 30.009 2.59858 30.1325 2.90938 30.1325H4.42813C3.69482 30.5374 3.0835 31.1314 2.65787 31.8529C2.23223 32.5743 2.00786 33.3967 2.00813 34.2344H3.18001C3.18001 36.175 4.75501 37.75 6.69563 37.75C8.63626 37.75 10.2113 36.175 10.2113 34.2344H11.3831C11.3833 33.3967 11.1588 32.5743 10.733 31.8528C10.3073 31.1314 9.69589 30.5373 8.96251 30.1325H25.5213C24.7879 30.5373 24.1765 31.1314 23.7507 31.8528C23.325 32.5743 23.1005 33.3967 23.1006 34.2344H24.2725C24.2899 35.1555 24.668 36.033 25.3255 36.6782C25.983 37.3235 26.8675 37.6849 27.7888 37.6849C28.71 37.6849 29.5945 37.3235 30.252 36.6782C30.9095 36.033 31.2876 35.1555 31.305 34.2344H32.4769C32.477 33.3968 32.2525 32.5745 31.8269 31.853C31.4013 31.1316 30.7901 30.5375 30.0569 30.1325H32.2069C33.1391 30.132 34.0331 29.7614 34.6923 29.1022C35.3515 28.443 35.722 27.5491 35.7225 26.6169C35.7224 26.1551 35.6314 25.6979 35.4546 25.2713C35.2778 24.8447 35.0188 24.4571 34.6922 24.1307C34.3656 23.8042 33.9779 23.5453 33.5513 23.3687C33.1246 23.192 32.6674 23.1012 32.2056 23.1013H31.77L33.2688 13.7825C33.6863 11.3213 34.5863 6.00437 34.7975 4.68187C34.9038 4.01375 35.0069 3.54437 35.4063 3.28125V3.765H37.1644C37.3194 3.76451 37.468 3.70273 37.5777 3.59315C37.6874 3.48357 37.7493 3.33506 37.75 3.18V0.83625C37.7497 0.680976 37.6879 0.532147 37.5782 0.422293C37.4684 0.312439 37.3197 0.250495 37.1644 0.25M6.69563 35.9925C6.2295 35.992 5.7826 35.8066 5.453 35.477C5.12339 35.1474 4.93801 34.7005 4.93751 34.2344H8.45313C8.45264 34.7004 8.26733 35.1472 7.93786 35.4768C7.60839 35.8064 7.16166 35.9918 6.69563 35.9925M27.7894 35.9925C27.3231 35.9922 26.8761 35.8069 26.5463 35.4772C26.2166 35.1476 26.0311 34.7006 26.0306 34.2344H29.5475C29.5467 34.7004 29.3612 35.1471 29.0317 35.4766C28.7021 35.8062 28.2554 35.9917 27.7894 35.9925M26.3475 9.62125C26.3681 9.46241 26.4451 9.31624 26.5644 9.20934C26.6837 9.10244 26.8374 9.04191 26.9975 9.03875H30.7081C31.0306 9.03875 31.255 9.29875 31.2044 9.61813L30.8369 11.975C30.7881 12.2938 30.4825 12.5544 30.1594 12.5544H26.62C26.5455 12.5563 26.4714 12.5422 26.4029 12.5128C26.3344 12.4834 26.273 12.4395 26.2231 12.3842C26.1731 12.3288 26.1358 12.2633 26.1135 12.1921C26.0913 12.121 26.0848 12.0458 26.0944 11.9719L26.3475 9.62125M25.7169 15.4806C25.7379 15.3219 25.8149 15.176 25.9342 15.0692C26.0534 14.9623 26.2068 14.9017 26.3669 14.8981H29.7938C30.1169 14.8981 30.3406 15.1581 30.2919 15.4775L30.015 17.2487C29.9656 17.5675 29.6606 17.8281 29.3375 17.8281H26.0519C25.9774 17.8299 25.9034 17.8156 25.835 17.7861C25.7666 17.7566 25.7053 17.7128 25.6554 17.6575C25.6055 17.6022 25.5682 17.5367 25.5459 17.4657C25.5236 17.3946 25.5169 17.3195 25.5263 17.2456L25.7169 15.4806M3.29126 11.9856L2.69751 9.6075C2.62001 9.29375 2.82126 9.03875 3.14438 9.03875H7.55626C7.88001 9.03875 8.17188 9.30062 8.20626 9.62125L8.45876 11.9725C8.46813 12.0463 8.46145 12.1213 8.4392 12.1924C8.41694 12.2634 8.37962 12.3288 8.32978 12.3841C8.27995 12.4394 8.21877 12.4833 8.15042 12.5128C8.08208 12.5423 8.00818 12.5567 7.93376 12.555H4.02063C3.69813 12.555 3.36938 12.2981 3.29126 11.9856M5.33563 17.8281C5.01313 17.8281 4.68438 17.5719 4.60688 17.2594L4.15938 15.4675C4.08126 15.1537 4.28126 14.8987 4.60438 14.8987H8.18501C8.50813 14.8987 8.80063 15.1606 8.83501 15.4813L9.02501 17.2463C9.03449 17.3201 9.02789 17.3952 9.00567 17.4662C8.98345 17.5373 8.94614 17.6027 8.89628 17.6581C8.84642 17.7134 8.7852 17.7573 8.71681 17.7867C8.64841 17.8162 8.57446 17.8305 8.50001 17.8287H5.33563V17.8281ZM9.06626 23.1019H6.65063C6.32626 23.1019 5.99938 22.8456 5.92126 22.5331L5.47376 20.7412C5.39626 20.4275 5.59626 20.1725 5.92001 20.1725H8.75126C9.07438 20.1725 9.36688 20.4344 9.40251 20.755L9.59126 22.52C9.60074 22.5938 9.59415 22.6689 9.57193 22.7399C9.54971 22.8109 9.51238 22.8763 9.46251 22.9316C9.41265 22.9869 9.35141 23.0307 9.28302 23.0601C9.21462 23.0895 9.14068 23.1037 9.06626 23.1019M16.2488 22.5156C16.2481 22.6711 16.186 22.82 16.0759 22.9299C15.9658 23.0397 15.8168 23.1015 15.6613 23.1019H12.6044C12.4443 23.0986 12.2908 23.038 12.1716 22.9311C12.0525 22.8242 11.9756 22.6781 11.955 22.5194L11.765 20.7544C11.7553 20.6805 11.7618 20.6055 11.7839 20.5343C11.806 20.4632 11.8432 20.3977 11.893 20.3424C11.9429 20.287 12.0041 20.2431 12.0725 20.2137C12.1409 20.1842 12.2149 20.17 12.2894 20.1719H15.6613C15.8169 20.1719 15.9661 20.2336 16.0762 20.3435C16.1864 20.4534 16.2484 20.6025 16.2488 20.7581V22.5156M16.2488 17.2425C16.2481 17.398 16.186 17.5469 16.0759 17.6568C15.9658 17.7666 15.8168 17.8284 15.6613 17.8287H12.0375C11.715 17.8287 11.4238 17.5669 11.3875 17.2463L11.1988 15.4813C11.1892 15.4074 11.1957 15.3324 11.2178 15.2613C11.24 15.1902 11.2772 15.1248 11.327 15.0695C11.3768 15.0141 11.438 14.9702 11.5064 14.9408C11.5748 14.9113 11.6487 14.897 11.7231 14.8987H15.6613C15.8169 14.8987 15.9661 14.9605 16.0762 15.0704C16.1864 15.1803 16.2484 15.3294 16.2488 15.485V17.2425M16.2488 11.9688C16.2481 12.1242 16.186 12.2732 16.0759 12.383C15.9658 12.4928 15.8168 12.5547 15.6613 12.555H11.4725C11.3124 12.5518 11.1587 12.4913 11.0394 12.3844C10.9201 12.2775 10.8431 12.1313 10.8225 11.9725L10.57 9.62125C10.5605 9.54739 10.5671 9.47235 10.5893 9.40127C10.6116 9.33019 10.6489 9.26475 10.6987 9.20943C10.7486 9.15412 10.8098 9.11022 10.8782 9.08077C10.9466 9.05131 11.0206 9.03697 11.095 9.03875H15.6619C15.8175 9.03875 15.9667 9.10048 16.0769 9.21038C16.187 9.32029 16.2491 9.4694 16.2494 9.625V11.9688H16.2488ZM22.5981 22.5194C22.5774 22.6782 22.5004 22.8243 22.3811 22.9311C22.2619 23.038 22.1082 23.0986 21.9481 23.1019H19.1856C19.0302 23.1015 18.8812 23.0397 18.7712 22.9298C18.6613 22.82 18.5993 22.6711 18.5988 22.5156V20.7575C18.5991 20.602 18.661 20.453 18.7711 20.3431C18.8811 20.2332 19.0301 20.1714 19.1856 20.1713H22.2631C22.5856 20.1713 22.8231 20.4331 22.7881 20.7537L22.5981 22.5194ZM23.1644 17.2456C23.1436 17.4044 23.0666 17.5505 22.9474 17.6574C22.8281 17.7643 22.6745 17.8248 22.5144 17.8281H19.1856C19.0302 17.8278 18.8812 17.7659 18.7712 17.6561C18.6613 17.5462 18.5993 17.3973 18.5988 17.2419V15.4838C18.5991 15.3283 18.661 15.1792 18.7711 15.0694C18.8811 14.9595 19.0301 14.8977 19.1856 14.8975H22.8294C23.1525 14.8975 23.3894 15.1594 23.3538 15.48L23.1644 17.2456ZM23.7306 11.9725C23.7099 12.1313 23.6329 12.2774 23.5136 12.3843C23.3944 12.4911 23.2407 12.5517 23.0806 12.555H19.1856C19.0302 12.5547 18.8812 12.4928 18.7712 12.383C18.6613 12.2731 18.5993 12.1242 18.5988 11.9688V9.625C18.5991 9.46951 18.661 9.32049 18.7711 9.2106C18.8811 9.10071 19.0301 9.03892 19.1856 9.03875H23.4588C23.7819 9.03875 24.0188 9.30062 23.9844 9.62125L23.7306 11.9725M28.2506 23.1019V23.0975L28.2456 23.1019H25.4856C25.4675 23.1019 25.4519 23.0931 25.4338 23.0906C25.4306 23.0694 25.4306 23.0481 25.4269 23.0256L25.3994 23.0831C25.407 23.0852 25.4147 23.0868 25.4225 23.0881C25.1344 23.055 24.9281 22.8169 24.9613 22.5194L25.15 20.7544C25.171 20.5957 25.2481 20.4497 25.3673 20.3429C25.4865 20.2361 25.64 20.1754 25.8 20.1719H28.9725C29.2956 20.1719 29.5181 20.4319 29.4694 20.7512L29.1925 22.5225C29.1444 22.8413 28.8394 23.1019 28.5163 23.1019H28.2506" fill="#F8F8F8"/>
</svg>
