<svg width="177" height="49" viewBox="0 0 177 49" fill="none" xmlns="http://www.w3.org/2000/svg">
<path d="M1.368 29L1.704 9.56H6.312L8.448 20.864L10.752 9.56H15.192L15.528 29H12.48L12.12 16.064L9.864 29H7.152L4.752 15.968L4.464 29H1.368ZM18.3384 29V9.56H23.6904C25.0024 9.56 26.1384 9.704 27.0984 9.992C28.0584 10.28 28.8024 10.8 29.3304 11.552C29.8744 12.288 30.1464 13.336 30.1464 14.696C30.1464 15.496 30.0824 16.208 29.9544 16.832C29.8264 17.456 29.5864 18 29.2344 18.464C28.8984 18.912 28.4104 19.288 27.7704 19.592L30.4344 29H25.9944L23.8584 20.288H22.6344V29H18.3384ZM22.6344 17.816H23.8344C24.4424 17.816 24.9144 17.712 25.2504 17.504C25.5864 17.28 25.8184 16.968 25.9464 16.568C26.0904 16.152 26.1624 15.656 26.1624 15.08C26.1624 14.248 26.0104 13.6 25.7064 13.136C25.4024 12.672 24.8424 12.44 24.0264 12.44H22.6344V17.816ZM43.9337 29.288C42.5897 29.288 41.5257 29.008 40.7417 28.448C39.9737 27.888 39.4217 27.104 39.0857 26.096C38.7657 25.072 38.6057 23.896 38.6057 22.568V16.04C38.6057 14.664 38.7817 13.472 39.1337 12.464C39.4857 11.456 40.0857 10.68 40.9337 10.136C41.7977 9.576 42.9657 9.296 44.4377 9.296C45.8777 9.296 47.0057 9.536 47.8217 10.016C48.6537 10.496 49.2457 11.16 49.5977 12.008C49.9497 12.856 50.1257 13.848 50.1257 14.984V16.232H45.9257V14.648C45.9257 14.232 45.8937 13.848 45.8297 13.496C45.7817 13.144 45.6537 12.864 45.4457 12.656C45.2537 12.432 44.9337 12.32 44.4857 12.32C44.0217 12.32 43.6857 12.448 43.4777 12.704C43.2697 12.944 43.1337 13.248 43.0697 13.616C43.0217 13.984 42.9977 14.368 42.9977 14.768V23.768C42.9977 24.2 43.0377 24.608 43.1177 24.992C43.2137 25.36 43.3737 25.664 43.5977 25.904C43.8377 26.128 44.1737 26.24 44.6057 26.24C45.0537 26.24 45.3977 26.12 45.6377 25.88C45.8777 25.64 46.0457 25.328 46.1417 24.944C46.2377 24.56 46.2857 24.152 46.2857 23.72V21.44H44.5337V18.92H50.1497V29H47.3177L47.0777 27.392C46.8217 27.936 46.4457 28.392 45.9497 28.76C45.4537 29.112 44.7817 29.288 43.9337 29.288ZM51.9024 29L55.5744 9.56H60.4704L64.0944 29H60.1344L59.4864 24.896H56.6304L55.9584 29H51.9024ZM57.0144 22.328H59.0784L58.0464 14.744L57.0144 22.328ZM66.0572 29V9.56H71.4092C72.7212 9.56 73.8572 9.704 74.8172 9.992C75.7772 10.28 76.5212 10.8 77.0492 11.552C77.5932 12.288 77.8652 13.336 77.8652 14.696C77.8652 15.496 77.8012 16.208 77.6732 16.832C77.5452 17.456 77.3052 18 76.9532 18.464C76.6172 18.912 76.1292 19.288 75.4892 19.592L78.1532 29H73.7132L71.5772 20.288H70.3532V29H66.0572ZM70.3532 17.816H71.5532C72.1612 17.816 72.6332 17.712 72.9692 17.504C73.3052 17.28 73.5372 16.968 73.6652 16.568C73.8092 16.152 73.8812 15.656 73.8812 15.08C73.8812 14.248 73.7292 13.6 73.4252 13.136C73.1212 12.672 72.5612 12.44 71.7452 12.44H70.3532V17.816ZM80.4478 29V9.56H85.3678C87.0638 9.56 88.3838 9.776 89.3278 10.208C90.2718 10.624 90.9358 11.288 91.3198 12.2C91.7038 13.096 91.8958 14.264 91.8958 15.704V22.76C91.8958 24.216 91.7038 25.408 91.3198 26.336C90.9358 27.248 90.2718 27.92 89.3278 28.352C88.3998 28.784 87.0958 29 85.4158 29H80.4478ZM84.7438 26.024H85.4158C86.0718 26.024 86.5438 25.928 86.8318 25.736C87.1198 25.544 87.2958 25.256 87.3598 24.872C87.4398 24.488 87.4798 24.008 87.4798 23.432V14.96C87.4798 14.384 87.4318 13.92 87.3358 13.568C87.2558 13.216 87.0718 12.96 86.7838 12.8C86.4958 12.64 86.0318 12.56 85.3918 12.56H84.7438V26.024ZM94.5103 29V9.56H97.5343L101.518 18.92V9.56H105.07V29H102.166L98.1823 18.92V29H94.5103ZM107.963 29V9.56H116.699V12.488H112.259V17.312H115.643V20.288H112.259V26.096H116.747V29H107.963ZM118.698 29V9.56H124.05C125.362 9.56 126.498 9.704 127.458 9.992C128.418 10.28 129.162 10.8 129.69 11.552C130.234 12.288 130.506 13.336 130.506 14.696C130.506 15.496 130.442 16.208 130.314 16.832C130.186 17.456 129.946 18 129.594 18.464C129.258 18.912 128.77 19.288 128.13 19.592L130.794 29H126.354L124.218 20.288H122.994V29H118.698ZM122.994 17.816H124.194C124.802 17.816 125.274 17.712 125.61 17.504C125.946 17.28 126.178 16.968 126.306 16.568C126.45 16.152 126.522 15.656 126.522 15.08C126.522 14.248 126.37 13.6 126.066 13.136C125.762 12.672 125.202 12.44 124.386 12.44H122.994V17.816Z" fill="white"/>
<path d="M0.882 46V34.66H3.192V39.322H5.194V34.66H7.504V46H5.194V40.974H3.192V46H0.882ZM11.6705 46.14C11.0732 46.14 10.5739 46.0327 10.1725 45.818C9.7712 45.594 9.46786 45.272 9.26253 44.852C9.0572 44.4227 8.95453 43.9093 8.95453 43.312V40.596C8.95453 39.98 9.0572 39.4667 9.26253 39.056C9.46786 38.636 9.77586 38.3187 10.1865 38.104C10.5972 37.88 11.0919 37.768 11.6705 37.768C12.2865 37.768 12.7859 37.88 13.1685 38.104C13.5512 38.328 13.8312 38.6547 14.0085 39.084C14.1952 39.5133 14.2885 40.036 14.2885 40.652V42.066H11.0405V43.634C11.0405 43.8673 11.0639 44.0587 11.1105 44.208C11.1665 44.3573 11.2412 44.4647 11.3345 44.53C11.4279 44.586 11.5445 44.614 11.6845 44.614C11.8152 44.614 11.9272 44.586 12.0205 44.53C12.1232 44.4647 12.1979 44.3667 12.2445 44.236C12.2912 44.1053 12.3145 43.9327 12.3145 43.718V42.948H14.2745V43.62C14.2745 44.4413 14.0505 45.0667 13.6025 45.496C13.1545 45.9253 12.5105 46.14 11.6705 46.14ZM11.0405 41.058H12.3145V40.26C12.3145 40.0267 12.2912 39.84 12.2445 39.7C12.1979 39.5507 12.1232 39.448 12.0205 39.392C11.9272 39.3267 11.8059 39.294 11.6565 39.294C11.5165 39.294 11.3999 39.3267 11.3065 39.392C11.2225 39.4573 11.1572 39.574 11.1105 39.742C11.0639 39.9007 11.0405 40.1293 11.0405 40.428V41.058ZM15.59 46V37.908H17.704V39.21C17.9747 38.734 18.2407 38.384 18.502 38.16C18.7727 37.9267 19.09 37.81 19.454 37.81C19.5193 37.81 19.5753 37.8147 19.622 37.824C19.678 37.824 19.7293 37.8333 19.776 37.852V39.98C19.6733 39.9333 19.5567 39.896 19.426 39.868C19.2953 39.8307 19.16 39.812 19.02 39.812C18.7587 39.812 18.5207 39.882 18.306 40.022C18.0913 40.1527 17.8907 40.344 17.704 40.596V46H15.59ZM23.2916 46.14C22.6943 46.14 22.195 46.0327 21.7936 45.818C21.3923 45.594 21.089 45.272 20.8836 44.852C20.6783 44.4227 20.5756 43.9093 20.5756 43.312V40.596C20.5756 39.98 20.6783 39.4667 20.8836 39.056C21.089 38.636 21.397 38.3187 21.8076 38.104C22.2183 37.88 22.713 37.768 23.2916 37.768C23.9076 37.768 24.407 37.88 24.7896 38.104C25.1723 38.328 25.4523 38.6547 25.6296 39.084C25.8163 39.5133 25.9096 40.036 25.9096 40.652V42.066H22.6616V43.634C22.6616 43.8673 22.685 44.0587 22.7316 44.208C22.7876 44.3573 22.8623 44.4647 22.9556 44.53C23.049 44.586 23.1656 44.614 23.3056 44.614C23.4363 44.614 23.5483 44.586 23.6416 44.53C23.7443 44.4647 23.819 44.3667 23.8656 44.236C23.9123 44.1053 23.9356 43.9327 23.9356 43.718V42.948H25.8956V43.62C25.8956 44.4413 25.6716 45.0667 25.2236 45.496C24.7756 45.9253 24.1316 46.14 23.2916 46.14ZM22.6616 41.058H23.9356V40.26C23.9356 40.0267 23.9123 39.84 23.8656 39.7C23.819 39.5507 23.7443 39.448 23.6416 39.392C23.5483 39.3267 23.427 39.294 23.2776 39.294C23.1376 39.294 23.021 39.3267 22.9276 39.392C22.8436 39.4573 22.7783 39.574 22.7316 39.742C22.685 39.9007 22.6616 40.1293 22.6616 40.428V41.058ZM31.0051 46V39.35H30.1931V37.908H31.0051V37.348C31.0051 36.8627 31.0517 36.4427 31.1451 36.088C31.2477 35.7333 31.4484 35.458 31.7471 35.262C32.0457 35.066 32.5031 34.968 33.1191 34.968C33.3057 34.968 33.4784 34.9727 33.6371 34.982C33.8051 34.9913 33.9917 35.01 34.1971 35.038V36.606C34.1224 36.5873 34.0384 36.5733 33.9451 36.564C33.8611 36.5453 33.7771 36.536 33.6931 36.536C33.4971 36.536 33.3524 36.5967 33.2591 36.718C33.1657 36.83 33.1191 37.012 33.1191 37.264V37.908H34.1971V39.35H33.1191V46H31.0051ZM37.6338 46.14C37.0551 46.14 36.5604 46.0373 36.1498 45.832C35.7391 45.6173 35.4264 45.3093 35.2118 44.908C35.0064 44.5067 34.9038 44.0073 34.9038 43.41V40.498C34.9038 39.9007 35.0064 39.4013 35.2118 39C35.4264 38.5987 35.7391 38.2953 36.1498 38.09C36.5604 37.8753 37.0551 37.768 37.6338 37.768C38.2124 37.768 38.7071 37.8753 39.1178 38.09C39.5284 38.2953 39.8411 38.5987 40.0558 39C40.2704 39.4013 40.3778 39.9007 40.3778 40.498V43.41C40.3778 44.0073 40.2704 44.5067 40.0558 44.908C39.8411 45.3093 39.5284 45.6173 39.1178 45.832C38.7071 46.0373 38.2124 46.14 37.6338 46.14ZM37.6478 44.712C37.8251 44.712 37.9604 44.6653 38.0538 44.572C38.1471 44.4693 38.2078 44.334 38.2358 44.166C38.2638 43.9887 38.2778 43.788 38.2778 43.564V40.358C38.2778 40.1247 38.2638 39.924 38.2358 39.756C38.2078 39.588 38.1471 39.4527 38.0538 39.35C37.9604 39.2473 37.8251 39.196 37.6478 39.196C37.4704 39.196 37.3351 39.2473 37.2418 39.35C37.1484 39.4527 37.0831 39.588 37.0458 39.756C37.0178 39.924 37.0038 40.1247 37.0038 40.358V43.564C37.0038 43.788 37.0178 43.9887 37.0458 44.166C37.0831 44.334 37.1484 44.4693 37.2418 44.572C37.3351 44.6653 37.4704 44.712 37.6478 44.712ZM41.6896 46V37.908H43.8036V39.21C44.0743 38.734 44.3403 38.384 44.6016 38.16C44.8723 37.9267 45.1896 37.81 45.5536 37.81C45.6189 37.81 45.6749 37.8147 45.7216 37.824C45.7776 37.824 45.8289 37.8333 45.8756 37.852V39.98C45.7729 39.9333 45.6563 39.896 45.5256 39.868C45.3949 39.8307 45.2596 39.812 45.1196 39.812C44.8583 39.812 44.6203 39.882 44.4056 40.022C44.1909 40.1527 43.9903 40.344 43.8036 40.596V46H41.6896ZM50.4832 48.282V46.798C50.7912 46.798 51.0432 46.7793 51.2392 46.742C51.4352 46.7047 51.5799 46.6347 51.6732 46.532C51.7759 46.4387 51.8272 46.3033 51.8272 46.126C51.8272 45.986 51.7946 45.7947 51.7292 45.552C51.6732 45.3093 51.6079 45.0387 51.5332 44.74L49.6852 37.908H51.6872L52.7232 42.878L53.5632 37.908H55.5792L53.7032 46.252C53.5912 46.7747 53.4046 47.1807 53.1432 47.47C52.8912 47.7687 52.5786 47.9787 52.2052 48.1C51.8412 48.2213 51.4166 48.282 50.9312 48.282H50.4832ZM59.0029 46.14C58.4242 46.14 57.9296 46.0373 57.5189 45.832C57.1082 45.6173 56.7956 45.3093 56.5809 44.908C56.3756 44.5067 56.2729 44.0073 56.2729 43.41V40.498C56.2729 39.9007 56.3756 39.4013 56.5809 39C56.7956 38.5987 57.1082 38.2953 57.5189 38.09C57.9296 37.8753 58.4242 37.768 59.0029 37.768C59.5816 37.768 60.0762 37.8753 60.4869 38.09C60.8976 38.2953 61.2102 38.5987 61.4249 39C61.6396 39.4013 61.7469 39.9007 61.7469 40.498V43.41C61.7469 44.0073 61.6396 44.5067 61.4249 44.908C61.2102 45.3093 60.8976 45.6173 60.4869 45.832C60.0762 46.0373 59.5816 46.14 59.0029 46.14ZM59.0169 44.712C59.1942 44.712 59.3296 44.6653 59.4229 44.572C59.5162 44.4693 59.5769 44.334 59.6049 44.166C59.6329 43.9887 59.6469 43.788 59.6469 43.564V40.358C59.6469 40.1247 59.6329 39.924 59.6049 39.756C59.5769 39.588 59.5162 39.4527 59.4229 39.35C59.3296 39.2473 59.1942 39.196 59.0169 39.196C58.8396 39.196 58.7042 39.2473 58.6109 39.35C58.5176 39.4527 58.4522 39.588 58.4149 39.756C58.3869 39.924 58.3729 40.1247 58.3729 40.358V43.564C58.3729 43.788 58.3869 43.9887 58.4149 44.166C58.4522 44.334 58.5176 44.4693 58.6109 44.572C58.7042 44.6653 58.8396 44.712 59.0169 44.712ZM64.4027 46.14C64.0761 46.14 63.8007 46.056 63.5767 45.888C63.3621 45.72 63.2034 45.496 63.1007 45.216C62.9981 44.936 62.9467 44.628 62.9467 44.292V37.908H65.0607V43.984C65.0607 44.208 65.0981 44.3807 65.1727 44.502C65.2474 44.614 65.3827 44.67 65.5787 44.67C65.6907 44.67 65.8074 44.642 65.9287 44.586C66.0594 44.5207 66.1901 44.446 66.3207 44.362V37.908H68.4347V46H66.3207V45.244C66.0407 45.5147 65.7374 45.734 65.4107 45.902C65.0934 46.0607 64.7574 46.14 64.4027 46.14Z" fill="white"/>
</svg>
